# xmcd CD database file
#
# Track frame offsets:
#	150
#	11746
#	24441
#	37906
#	49788
#	60361
#	71779
#	84288
#	93222
#	102808
#	111630
#	125324
#	138286
#	148591
#	161392
#	175441
#	187409
#	195919
#	205587
#	212986
#	226833
#	243682
#	257557
#	271657
#
# Disc length: 3791 seconds
#
# Revision: 0
# Processed by: cddbd v1.4PL0 Copyright (c) Steve Scherf et al.
# Submitted via: CDex 1.50Beta3
#
DISCID=4a0ecd18
DTITLE=Johnny Cash - International Superstar
DYEAR=2002
DGENRE=Country
TTITLE0=A Thing Called Love
TTITLE1=Johnny Cash And The Carter Family - No Need To Worry
TTITLE2=Johnny Cash And The Carter Family - Happiness Is You
TTITLE3=Johnny Cash And The Carter Family - A Song To Mama
TTITLE4=Johnny Cash With The Statler Brothers - Cotton Pickin' Hands
TTITLE5=San Quentin
TTITLE6=Johnny Cash And June Carter Cash - Jackson
TTITLE7=Johnny Cash With The Statler Brothers And The Carter Family
TTITLE8=Austin Prison
TTITLE9=Johnny Cash With The Statler Brothers - Pick A Bale Of Cotto
TTITLE10=White Girl
TTITLE11=The Shifting, Whispering Sands Part 1
TTITLE12=Kate
TTITLE13=The One On The Right Is On The Left
TTITLE14=You And Tennessee
TTITLE15=Johnny Cash With The Statler Brothers - Hammers And Nails
TTITLE16=Johnny Cash With The Statler Brothers - Tall Man
TTITLE17=Johnny Cash And June Carter Cash - I'll Be Loving You
TTITLE18=From Sea To Shining Sea
TTITLE19=The Folk Singer
TTITLE20=Johnny Cash And The Carter Family - Mr. Garfield
TTITLE21=Johnny Cash And June Carter Cash - If Not For Love
TTITLE22=Mississippi Sand
TTITLE23=Johnny Cash And June Carter Cash - I Gotta Boy (and His Name is John)
EXTD=YEAR: 2002
EXTT0=
EXTT1=
EXTT2=
EXTT3=
EXTT4=
EXTT5=
EXTT6=
EXTT7=
EXTT8=
EXTT9=
EXTT10=
EXTT11=
EXTT12=
EXTT13=
EXTT14=
EXTT15=
EXTT16=
EXTT17=
EXTT18=
EXTT19=
EXTT20=
EXTT21=
EXTT22=
EXTT23=
PLAYORDER=
